                                                                        S      1
File generated by Shapr3D Version 3.0                                   S      2
                                                                        S      3
1H,,1H;,104H/private/var/mobile/Containers/Data/Application/1741C11A-452G      1
A-457C-B1FA-66558AA4C566/tmp/export/temp.x_b,105H/private/var/mobile/ConG      2
tainers/Data/Application/1741C11A-452A-457C-B1FA-66558AA4C566/tmp/exportG      3
/temp.iges,7HShapr3D,3H3.0,32,24,8,56,15,104H/private/var/mobile/ContainG      4
ers/Data/Application/1741C11A-452A-457C-B1FA-66558AA4C566/tmp/export/temG      5
p.x_b,1.,2,2HMM,1000,1.,13H200607.125136,1D-05,1000000.,,,9,0,13H200607.G      6
125136;                                                                 G      7
     502       1       1       0   65535       0       0       000010001D      1
     502    1000       0       7       1                               0D      2
     110       8       1       0       0       0       0       000010000D      3
     110    1000       0       1       0                               0D      4
     110       9       1       0       0       0       0       000010000D      5
     110    1000       0       1       0                               0D      6
     110      10       1       0       0       0       0       000010000D      7
     110    1000       0       1       0                               0D      8
     110      11       1       0       0       0       0       000010000D      9
     110    1000       0       1       0                               0D     10
     110      12       1       0       0       0       0       000010000D     11
     110    1000       0       1       0                               0D     12
     110      13       1       0       0       0       0       000010000D     13
     110    1000       0       1       0                               0D     14
     110      14       1       0       0       0       0       000010000D     15
     110    1000       0       1       0                               0D     16
     110      15       1       0       0       0       0       000010000D     17
     110    1000       0       1       0                               0D     18
     110      16       1       0       0       0       0       000010000D     19
     110    1000       0       1       0                               0D     20
     110      17       1       0       0       0       0       000010000D     21
     110    1000       0       1       0                               0D     22
     110      18       1       0       0       0       0       000010000D     23
     110    1000       0       1       0                               0D     24
     110      19       1       0       0       0       0       000010000D     25
     110    1000       0       1       0                               0D     26
     124      20       1       0       0       0       0       001010000D     27
     124    1000       0       1       0                               0D     28
     104      21       1       0       0       0      27       000010000D     29
     104    1000       0       2       1                               0D     30
     124      23       1       0       0       0       0       001010000D     31
     124    1000       0       1       0                               0D     32
     104      24       1       0       0       0      31       000010000D     33
     104    1000       0       2       1                               0D     34
     124      26       1       0       0       0       0       001010000D     35
     124    1000       0       1       0                               0D     36
     100      27       1       0       0       0      35       000010000D     37
     100    1000       0       2       0                               0D     38
     124      29       1       0       0       0       0       001010000D     39
     124    1000       0       1       0                               0D     40
     100      30       1       0       0       0      39       000010000D     41
     100    1000       0       1       0                               0D     42
     110      31       1       0       0       0       0       000010000D     43
     110    1000       0       2       0                               0D     44
     110      33       1       0       0       0       0       000010000D     45
     110    1000       0       1       0                               0D     46
     124      34       1       0       0       0       0       001010000D     47
     124    1000       0       1       0                               0D     48
     100      35       1       0       0       0      47       000010000D     49
     100    1000       0       2       0                               0D     50
     124      37       1       0       0       0       0       001010000D     51
     124    1000       0       1       0                               0D     52
     100      38       1       0       0       0      51       000010000D     53
     100    1000       0       1       0                               0D     54
     126      39       1       0       0       0       0       000010000D     55
     126    1000       0       3       0                               0D     56
     126      42       1       0       0       0       0       000010000D     57
     126    1000       0       3       0                               0D     58
     124      45       1       0       0       0       0       001010000D     59
     124    1000       0       1       0                               0D     60
     104      46       1       0       0       0      59       000010000D     61
     104    1000       0       2       1                               0D     62
     124      48       1       0       0       0       0       001010000D     63
     124    1000       0       1       0                               0D     64
     104      49       1       0       0       0      63       000010000D     65
     104    1000       0       2       1                               0D     66
     504      51       1       0   65535       0       0       000010001D     67
     504    1000       0       5       1                               0D     68
     314      56       1       0       0       0       0       000020000D     69
     314    1000       0       2       0                               0D     70
     116      58       1       0       0       0       0       000010200D     71
     116    1000       0       1       0                               0D     72
     123      59       1       0       0       0       0       000010200D     73
     123    1000       0       1       0                               0D     74
     123      60       1       0       0       0       0       000010200D     75
     123    1000       0       1       0                               0D     76
     190      61       1       0       0       0       0       000010000D     77
     190    1000     -69       1       1                               0D     78
     508      62       1       0       0       0       0       000010001D     79
     508    1000       0       1       1                               0D     80
     510      63       1       1       0       0       0       000010001D     81
     510    1000     -69       1       1                               0D     82
     116      64       1       0       0       0       0       000010200D     83
     116    1000       0       1       0                               0D     84
     123      65       1       0       0       0       0       000010200D     85
     123    1000       0       1       0                               0D     86
     123      66       1       0       0       0       0       000010200D     87
     123    1000       0       1       0                               0D     88
     190      67       1       0       0       0       0       000010000D     89
     190    1000     -69       1       1                               0D     90
     508      68       1       0       0       0       0       000010001D     91
     508    1000       0       1       1                               0D     92
     510      69       1       1       0       0       0       000010001D     93
     510    1000     -69       1       1                               0D     94
     116      70       1       0       0       0       0       000010200D     95
     116    1000       0       1       0                               0D     96
     123      71       1       0       0       0       0       000010200D     97
     123    1000       0       1       0                               0D     98
     123      72       1       0       0       0       0       000010200D     99
     123    1000       0       1       0                               0D    100
     190      73       1       0       0       0       0       000010000D    101
     190    1000     -69       1       1                               0D    102
     508      74       1       0       0       0       0       000010001D    103
     508    1000       0       1       1                               0D    104
     510      75       1       1       0       0       0       000010001D    105
     510    1000     -69       1       1                               0D    106
     116      76       1       0       0       0       0       000010200D    107
     116    1000       0       1       0                               0D    108
     123      77       1       0       0       0       0       000010200D    109
     123    1000       0       1       0                               0D    110
     123      78       1       0       0       0       0       000010200D    111
     123    1000       0       1       0                               0D    112
     190      79       1       0       0       0       0       000010000D    113
     190    1000     -69       1       1                               0D    114
     508      80       1       0       0       0       0       000010001D    115
     508    1000       0       1       1                               0D    116
     510      81       1       1       0       0       0       000010001D    117
     510    1000     -69       1       1                               0D    118
     116      82       1       0       0       0       0       000010200D    119
     116    1000       0       1       0                               0D    120
     123      83       1       0       0       0       0       000010200D    121
     123    1000       0       1       0                               0D    122
     123      84       1       0       0       0       0       000010200D    123
     123    1000       0       1       0                               0D    124
     190      85       1       0       0       0       0       000010000D    125
     190    1000     -69       1       1                               0D    126
     508      86       1       0       0       0       0       000010001D    127
     508    1000       0       1       1                               0D    128
     510      87       1       1       0       0       0       000010001D    129
     510    1000     -69       1       1                               0D    130
     116      88       1       0       0       0       0       000010200D    131
     116    1000       0       1       0                               0D    132
     123      89       1       0       0       0       0       000010200D    133
     123    1000       0       1       0                               0D    134
     123      90       1       0       0       0       0       000010200D    135
     123    1000       0       1       0                               0D    136
     190      91       1       0       0       0       0       000010000D    137
     190    1000     -69       1       1                               0D    138
     508      92       1       0       0       0       0       000010001D    139
     508    1000       0       1       1                               0D    140
     508      93       1       0       0       0       0       000010001D    141
     508    1000       0       1       1                               0D    142
     508      94       1       0       0       0       0       000010001D    143
     508    1000       0       1       1                               0D    144
     510      95       1       1       0       0       0       000010001D    145
     510    1000     -69       1       1                               0D    146
     116      96       1       0       0       0       0       000010200D    147
     116    1000       0       1       0                               0D    148
     123      97       1       0       0       0       0       000010200D    149
     123    1000       0       1       0                               0D    150
     123      98       1       0       0       0       0       000010200D    151
     123    1000       0       1       0                               0D    152
     192      99       1       0       0       0       0       000010000D    153
     192    1000     -69       1       1                               0D    154
     508     100       1       0       0       0       0       000010001D    155
     508    1000       0       1       1                               0D    156
     510     101       1       1       0       0       0       000010001D    157
     510    1000     -69       1       1                               0D    158
     116     102       1       0       0       0       0       000010200D    159
     116    1000       0       1       0                               0D    160
     123     103       1       0       0       0       0       000010200D    161
     123    1000       0       1       0                               0D    162
     123     104       1       0       0       0       0       000010200D    163
     123    1000       0       1       0                               0D    164
     190     105       1       0       0       0       0       000010000D    165
     190    1000     -69       1       1                               0D    166
     508     106       1       0       0       0       0       000010001D    167
     508    1000       0       1       1                               0D    168
     510     107       1       1       0       0       0       000010001D    169
     510    1000     -69       1       1                               0D    170
     128     108       1       0       0       0       0       000010000D    171
     128    1000     -69      11       0                               0D    172
     508     119       1       0       0       0       0       000010001D    173
     508    1000       0       1       1                               0D    174
     510     120       1       1       0       0       0       000010001D    175
     510    1000     -69       1       1                               0D    176
     116     121       1       0       0       0       0       000010200D    177
     116    1000       0       1       0                               0D    178
     123     122       1       0       0       0       0       000010200D    179
     123    1000       0       1       0                               0D    180
     123     123       1       0       0       0       0       000010200D    181
     123    1000       0       1       0                               0D    182
     190     124       1       0       0       0       0       000010000D    183
     190    1000     -69       1       1                               0D    184
     508     125       1       0       0       0       0       000010001D    185
     508    1000       0       1       1                               0D    186
     510     126       1       1       0       0       0       000010001D    187
     510    1000     -69       1       1                               0D    188
     116     127       1       0       0       0       0       000010200D    189
     116    1000       0       1       0                               0D    190
     123     128       1       0       0       0       0       000010200D    191
     123    1000       0       1       0                               0D    192
     123     129       1       0       0       0       0       000010200D    193
     123    1000       0       1       0                               0D    194
     192     130       1       0       0       0       0       000010000D    195
     192    1000     -69       1       1                               0D    196
     508     131       1       0       0       0       0       000010001D    197
     508    1000       0       1       1                               0D    198
     510     132       1       1       0       0       0       000010001D    199
     510    1000     -69       1       1                               0D    200
     128     133       1       0       0       0       0       000010000D    201
     128    1000     -69      11       0                               0D    202
     508     144       1       0       0       0       0       000010001D    203
     508    1000       0       1       1                               0D    204
     510     145       1       1       0       0       0       000010001D    205
     510    1000     -69       1       1                               0D    206
     514     146       1       0       0       0       0       000010000D    207
     514    1000       0       2       1                               0D    208
     186     148       1       0   65535       0       0       000000001D    209
     186    1000       0       1       0                               0D    210
502,16,5000.,-4000.,0.,5000.,4000.,0.,5000.,4000.,3500.,5000.,         1P      1
-4000.,3500.,-5000.,-4000.,0.,-5000.,-4000.,3500.,-5000.,4000.,        1P      2
0.,-5000.,4000.,3500.,-400.,-2200.,0.,-1600.,-2200.,                   1P      3
-1.38777878078145D-14,-3460.,4.89858719658941D-15,0.,-3540.,           1P      4
-4.89858719658941D-15,0.,-3460.,4.89858719658941D-15,100.,             1P      5
-3540.,-4.89858719658941D-15,100.,-400.,-2200.,1800.,-1600.,           1P      6
-2200.,1800.,0,0;                                                      1P      7
110,5000.,-4000.,0.,5000.,4000.,0.,0,0;                                3P      8
110,5000.,4000.,3500.,5000.,4000.,0.,0,0;                              5P      9
110,5000.,-4000.,3500.,5000.,4000.,3500.,0,0;                          7P     10
110,5000.,-4000.,3500.,5000.,-4000.,0.,0,0;                            9P     11
110,-5000.,-4000.,0.,5000.,-4000.,0.,0,0;                             11P     12
110,-5000.,-4000.,3500.,5000.,-4000.,3500.,0,0;                       13P     13
110,-5000.,-4000.,3500.,-5000.,-4000.,0.,0,0;                         15P     14
110,-5000.,4000.,0.,-5000.,-4000.,0.,0,0;                             17P     15
110,-5000.,4000.,3500.,-5000.,-4000.,3500.,0,0;                       19P     16
110,-5000.,4000.,3500.,-5000.,4000.,0.,0,0;                           21P     17
110,5000.,4000.,0.,-5000.,4000.,0.,0,0;                               23P     18
110,5000.,4000.,3500.,-5000.,4000.,3500.,0,0;                         25P     19
124,-1.,0.,0.,-1000.,0.,1.,0.,-2200.,0.,0.,-1.,0.,0,0;                27P     20
104,90000.,0.,360000.,0.,0.,-32400000000.,0.,-600.,                   29P     21
3.67394039744206D-14,600.,-7.34788079488412D-14,0,0;                  29P     22
124,-1.,0.,0.,-1000.,0.,1.,0.,-2200.,0.,0.,-1.,0.,0,0;                31P     23
104,90000.,0.,360000.,0.,0.,-32400000000.,0.,600.,0.,-600.,           33P     24
3.67394039744206D-14,0,0;                                             33P     25
124,-1.,0.,0.,-3500.,0.,1.,0.,0.,0.,0.,-1.,0.,0,0;                    35P     26
100,0.,0.,0.,-40.,4.89858719658941D-15,40.,                           37P     27
-9.79717439317882D-15,0,0;                                            37P     28
124,-1.,0.,0.,-3500.,0.,1.,0.,0.,0.,0.,-1.,0.,0,0;                    39P     29
100,0.,0.,0.,40.,0.,-40.,4.89858719658941D-15,0,0;                    41P     30
110,-3460.,4.89858719658941D-15,0.,-3460.,4.89858719658941D-15,       43P     31
100.,0,0;                                                             43P     32
110,-3540.,0.,0.,-3540.,0.,100.,0,0;                                  45P     33
124,-1.,0.,0.,-3500.,0.,1.,0.,0.,0.,0.,-1.,100.,0,0;                  47P     34
100,0.,0.,0.,-40.,4.89858719658941D-15,40.,                           49P     35
-9.79717439317882D-15,0,0;                                            49P     36
124,-1.,0.,0.,-3500.,0.,1.,0.,0.,0.,0.,-1.,100.,0,0;                  51P     37
100,0.,0.,0.,40.,0.,-40.,4.89858719658941D-15,0,0;                    53P     38
126,1,1,0,0,1,0,-5.55111512312578D-17,-5.55111512312578D-17,1.8,      55P     39
1.8,1.,1.,-400.,-2200.,-2.77555756156289D-14,-400.,-2200.,1800.,      55P     40
-5.55111512312578D-17,1.8,0.,0.,0.,0,0;                               55P     41
126,1,1,0,0,1,0,-5.55111512312578D-17,-5.55111512312578D-17,1.8,      57P     42
1.8,1.,1.,-1600.,-2200.,-2.77555756156289D-14,-1600.,-2200.,          57P     43
1800.,-5.55111512312578D-17,1.8,0.,0.,0.,0,0;                         57P     44
124,-1.,0.,0.,-1000.,0.,1.,0.,-2200.,0.,0.,-1.,1800.,0,0;             59P     45
104,90000.,0.,360000.,0.,0.,-32400000000.,0.,-600.,                   61P     46
3.67394039744206D-14,600.,-7.34788079488412D-14,0,0;                  61P     47
124,-1.,0.,0.,-1000.,0.,1.,0.,-2200.,0.,0.,-1.,1800.,0,0;             63P     48
104,90000.,0.,360000.,0.,0.,-32400000000.,0.,600.,0.,-600.,           65P     49
3.67394039744206D-14,0,0;                                             65P     50
504,24,3,1,1,1,2,5,1,3,1,2,7,1,4,1,3,9,1,4,1,1,11,1,5,1,1,13,1,       67P     51
6,1,4,15,1,6,1,5,17,1,7,1,5,19,1,8,1,6,21,1,8,1,7,23,1,2,1,7,25,      67P     52
1,3,1,8,29,1,9,1,10,33,1,10,1,9,37,1,11,1,12,41,1,12,1,11,43,1,       67P     53
11,1,13,45,1,12,1,14,49,1,13,1,14,53,1,14,1,13,55,1,9,1,15,57,1,      67P     54
10,1,16,61,1,15,1,16,65,1,16,1,15,0,0;                                67P     55
314,32.1568641662598,34.1176490783691,36.0784339904785,5HCOLOR,       69P     56
0,0;                                                                  69P     57
116,5000.,-4000.,1600.,0,0,0;                                         71P     58
123,-1.,0.,0.,0,0,0;                                                  73P     59
123,0.,0.,1.,0,0,0;                                                   75P     60
190,71,73,75,0,0;                                                     77P     61
508,4,0,67,4,0,0,0,67,3,1,0,0,67,2,1,0,0,67,1,0,0,0,0;                79P     62
510,77,1,1,79,0,0;                                                    81P     63
116,-5000.,-4000.,1600.,0,0,0;                                        83P     64
123,0.,1.,0.,0,0,0;                                                   85P     65
123,0.,-0.,1.,0,0,0;                                                  87P     66
190,83,85,87,0,0;                                                     89P     67
508,4,0,67,7,0,0,0,67,6,1,0,0,67,4,1,0,0,67,5,0,0,0,0;                91P     68
510,89,1,1,91,0,0;                                                    93P     69
116,-5000.,4000.,1600.,0,0,0;                                         95P     70
123,1.,0.,0.,0,0,0;                                                   97P     71
123,0.,0.,-1.,0,0,0;                                                  99P     72
190,95,97,99,0,0;                                                    101P     73
508,4,0,67,10,0,0,0,67,9,1,0,0,67,7,1,0,0,67,8,0,0,0,0;              103P     74
510,101,1,1,103,0,0;                                                 105P     75
116,5000.,4000.,1600.,0,0,0;                                         107P     76
123,0.,-1.,0.,0,0,0;                                                 109P     77
123,0.,0.,-1.,0,0,0;                                                 111P     78
190,107,109,111,0,0;                                                 113P     79
508,4,0,67,2,0,0,0,67,12,1,0,0,67,10,1,0,0,67,11,0,0,0,0;            115P     80
510,113,1,1,115,0,0;                                                 117P     81
116,0.,0.,3500.,0,0,0;                                               119P     82
123,0.,0.,-1.,0,0,0;                                                 121P     83
123,-1.,0.,0.,0,0,0;                                                 123P     84
190,119,121,123,0,0;                                                 125P     85
508,4,0,67,6,0,0,0,67,9,0,0,0,67,12,0,0,0,67,3,0,0,0,0;              127P     86
510,125,1,1,127,0,0;                                                 129P     87
116,0.,0.,0.,0,0,0;                                                  131P     88
123,0.,0.,-1.,0,0,0;                                                 133P     89
123,-1.,0.,0.,0,0,0;                                                 135P     90
190,131,133,135,0,0;                                                 137P     91
508,2,0,67,13,0,0,0,67,14,0,0,0,0;                                   139P     92
508,2,0,67,15,0,0,0,67,16,0,0,0,0;                                   141P     93
508,4,0,67,1,0,0,0,67,5,0,0,0,67,8,0,0,0,67,11,0,0,0,0;              143P     94
510,137,3,1,143,139,141,0,0;                                         145P     95
116,-3500.,0.,100.,0,0,0;                                            147P     96
123,0.,0.,-1.,0,0,0;                                                 149P     97
123,-1.,0.,0.,0,0,0;                                                 151P     98
192,147,149,40.,151,0,0;                                             153P     99
508,4,0,67,19,1,0,0,67,18,0,0,0,67,15,0,0,0,67,17,1,0,0,0;           155P    100
510,153,1,1,155,0,0;                                                 157P    101
116,0.,0.,100.,0,0,0;                                                159P    102
123,0.,0.,-1.,0,0,0;                                                 161P    103
123,-1.,0.,0.,0,0,0;                                                 163P    104
190,159,161,163,0,0;                                                 165P    105
508,2,0,67,20,1,0,0,67,19,1,0,0,0;                                   167P    106
510,165,1,1,167,0,0;                                                 169P    107
128,8,1,2,1,0,0,0,0,0,0.,0.,0.,0.25,0.25,0.5,0.5,0.75,0.75,1.,       171P    108
1.,1.,0.,0.,1.,1.,1.,0.707106781186548,1.,0.707106781186548,1.,      171P    109
0.707106781186548,1.,0.707106781186548,1.,1.,0.707106781186548,      171P    110
1.,0.707106781186548,1.,0.707106781186548,1.,0.707106781186548,      171P    111
1.,-1600.,-2200.,1980.,-1600.,-1900.,1980.,-1000.,-1900.,1980.,      171P    112
-400.,-1900.,1980.,-400.,-2200.,1980.,-399.999999999999,-2500.,      171P    113
1980.,-999.999999999999,-2500.,1980.,-1600.,-2500.,1980.,-1600.,     171P    114
-2200.,1980.,-1600.,-2200.,-180.,-1600.,-1900.,-180.,-1000.,         171P    115
-1900.,-180.,-400.,-1900.,-180.,-400.,-2200.,-180.,                  171P    116
-399.999999999999,-2500.,-180.,-999.999999999999,-2500.,-180.,       171P    117
-1600.,-2500.,-180.,-1600.,-2200.,-180.,0.,1.,0.,1.,0,0;             171P    118
508,4,0,67,23,1,0,0,67,22,0,0,0,67,13,0,0,0,67,21,1,0,0,0;           173P    119
510,171,1,1,173,0,0;                                                 175P    120
116,0.,0.,1800.,0,0,0;                                               177P    121
123,0.,0.,-1.,0,0,0;                                                 179P    122
123,-1.,0.,0.,0,0,0;                                                 181P    123
190,177,179,181,0,0;                                                 183P    124
508,2,0,67,24,1,0,0,67,23,1,0,0,0;                                   185P    125
510,183,1,1,185,0,0;                                                 187P    126
116,-3500.,0.,100.,0,0,0;                                            189P    127
123,0.,0.,-1.,0,0,0;                                                 191P    128
123,-1.,0.,0.,0,0,0;                                                 193P    129
192,189,191,40.,193,0,0;                                             195P    130
508,4,0,67,16,0,0,0,67,18,1,0,0,67,20,1,0,0,67,17,0,0,0,0;           197P    131
510,195,1,1,197,0,0;                                                 199P    132
128,8,1,2,1,0,0,0,0,0,0.,0.,0.,0.25,0.25,0.5,0.5,0.75,0.75,1.,       201P    133
1.,1.,0.,0.,1.,1.,1.,0.707106781186548,1.,0.707106781186548,1.,      201P    134
0.707106781186548,1.,0.707106781186548,1.,1.,0.707106781186548,      201P    135
1.,0.707106781186548,1.,0.707106781186548,1.,0.707106781186548,      201P    136
1.,-1600.,-2200.,1980.,-1600.,-1900.,1980.,-1000.,-1900.,1980.,      201P    137
-400.,-1900.,1980.,-400.,-2200.,1980.,-399.999999999999,-2500.,      201P    138
1980.,-999.999999999999,-2500.,1980.,-1600.,-2500.,1980.,-1600.,     201P    139
-2200.,1980.,-1600.,-2200.,-180.,-1600.,-1900.,-180.,-1000.,         201P    140
-1900.,-180.,-400.,-1900.,-180.,-400.,-2200.,-180.,                  201P    141
-399.999999999999,-2500.,-180.,-999.999999999999,-2500.,-180.,       201P    142
-1600.,-2500.,-180.,-1600.,-2200.,-180.,0.,1.,0.,1.,0,0;             201P    143
508,4,0,67,14,0,0,0,67,22,1,0,0,67,24,1,0,0,67,21,0,0,0,0;           203P    144
510,201,1,1,203,0,0;                                                 205P    145
514,12,81,0,93,0,105,0,117,0,129,0,145,1,157,0,169,1,175,0,187,      207P    146
1,199,0,205,0,0,0;                                                   207P    147
186,207,1,0;0,0;                                                     209P    148
S      3G      7D    210P    148                                        T      1
